<mxfile host="app.diagrams.net" modified="2024-06-09T23:51:02.606Z" agent="Mozilla/5.0 (X11; Linux x86_64) AppleWebKit/537.36 (KHTML, like Gecko) Chrome/123.0.0.0 Safari/537.36" etag="Dlx3nvk2drAEOVMScPXb" version="24.5.2" type="github">
  <diagram name="Page-1" id="MyNjFPUw-BJLDSF9kv5I">
    <mxGraphModel dx="954" dy="558" grid="1" gridSize="10" guides="1" tooltips="1" connect="1" arrows="1" fold="1" page="1" pageScale="1" pageWidth="850" pageHeight="1100" math="0" shadow="0">
      <root>
        <mxCell id="0" />
        <mxCell id="1" parent="0" />
        <mxCell id="pgRUcTLzWGdcKizJ-VB0-1" value="" style="shape=image;verticalLabelPosition=bottom;labelBackgroundColor=default;verticalAlign=top;aspect=fixed;imageAspect=0;image=https://daasi.de/wp-content/uploads/2017/07/OpenLDAP_Logo.png.pagespeed.ce.4pCPKkLfLd.png;" vertex="1" parent="1">
          <mxGeometry x="390" y="330" width="173.44" height="109" as="geometry" />
        </mxCell>
        <mxCell id="pgRUcTLzWGdcKizJ-VB0-2" value="" style="rounded=1;whiteSpace=wrap;html=1;" vertex="1" parent="1">
          <mxGeometry x="160" y="90" width="190" height="210" as="geometry" />
        </mxCell>
        <mxCell id="pgRUcTLzWGdcKizJ-VB0-4" value="" style="shape=image;verticalLabelPosition=bottom;labelBackgroundColor=default;verticalAlign=top;aspect=fixed;imageAspect=0;image=https://pbs.twimg.com/profile_images/1479264769488130051/pB3vi9o-_400x400.png;" vertex="1" parent="1">
          <mxGeometry x="187.5" y="170" width="120" height="120" as="geometry" />
        </mxCell>
        <mxCell id="pgRUcTLzWGdcKizJ-VB0-5" value="&lt;b style=&quot;font-size: 16px;&quot;&gt;&lt;font style=&quot;font-size: 16px;&quot;&gt;Team Awareness Kit&lt;/font&gt;&lt;/b&gt;&lt;div style=&quot;font-size: 16px;&quot;&gt;&lt;b style=&quot;&quot;&gt;&lt;font style=&quot;font-size: 16px;&quot;&gt;Server&lt;/font&gt;&lt;/b&gt;&lt;/div&gt;" style="text;html=1;align=center;verticalAlign=middle;whiteSpace=wrap;rounded=0;" vertex="1" parent="1">
          <mxGeometry x="192.5" y="100" width="115" height="70" as="geometry" />
        </mxCell>
        <mxCell id="pgRUcTLzWGdcKizJ-VB0-6" value="" style="rounded=1;whiteSpace=wrap;html=1;" vertex="1" parent="1">
          <mxGeometry x="630" y="90" width="190" height="210" as="geometry" />
        </mxCell>
      </root>
    </mxGraphModel>
  </diagram>
</mxfile>
